<svg xmlns="http://www.w3.org/2000/svg" width="18" height="18" viewBox="0 0 18 18">
    <path fill="#3E4356" fill-rule="nonzero" d="M17.003 0c.55 0 .997.447.997.997v6.006c0 .55-.447.997-.997.997h-6.006A.998.998 0 0 1 10 7.003V.997c0-.55.447-.997.997-.997h6.006zM16 2h-4v4h4V2zM7.003 0C7.553 0 8 .447 8 .997v6.006c0 .55-.447.997-.997.997H.997A.998.998 0 0 1 0 7.003V.997C0 .447.447 0 .997 0h6.006zM6 2H2v4h4V2zm-6 8.997c0-.55.447-.997.997-.997h6.006c.55 0 .997.447.997.997v6.006c0 .55-.447.997-.997.997H.997A.998.998 0 0 1 0 17.003v-6.006zM2 12v4h4v-4H2zm8-1.003c0-.55.447-.997.997-.997h6.006c.55 0 .997.447.997.997v6.006c0 .55-.447.997-.997.997h-6.006a.998.998 0 0 1-.997-.997v-6.006zM12 12v4h4v-4h-4z"/>
</svg>
